<?xml version="1.0" encoding="UTF-8"?>
<level>
  <owner>Fistachka</owner>
  <repo>zima2</repo>
  <version>v1.0.4</version>
  <next number="1" owner="Fistachka" repo="zima3"/>
  <readme>
    <ru>15e89d0d627a94087ae810ce1966feb0cb1d50e494d6b49b83ce1dbb81afffbd</ru>
    <en>5644455a83a7eb90f2ff5b0b966d8479d1a7abbe1889a1a2ee4a5877a9fdccb4</en>
  </readme>
  <license>b1b99f5538d1fd3702219bff50c665196dfa42f6ee755c37fe41a6178d6bc6e5</license>
  <exercise number="1">
    <scale>minor</scale>
    <cadenceVariant>harmonic</cadenceVariant>
    <bpm>140</bpm>
    <lowestNote>5</lowestNote>
    <tonalities>8</tonalities>
    <video name="9t.mp4" size="2245187" type="video/mp4" volume="0.5">c469b8132dd1b095a3ecf198bf47a26046948abae716df429b3a6edda67d3b12</video>
    <notes>
      <note number="1" values="5" ticks="775" durationTicks="35" ppq="96" velocity="0.71"/>
      <note number="2" values="5" ticks="822" durationTicks="68" ppq="96" velocity="0.778"/>
      <note number="3" values="5" ticks="919" durationTicks="96" ppq="96" velocity="0.733"/>
      <note number="4" values="18" ticks="1014" durationTicks="95" ppq="96" velocity="0.758"/>
      <note number="5" values="38" ticks="1110" durationTicks="95" ppq="96" velocity="0.712"/>
      <note number="6" values="28" ticks="1206" durationTicks="95" ppq="96" velocity="0.8"/>
      <note number="7" values="18" ticks="1302" durationTicks="95" ppq="96" velocity="0.753"/>
    </notes>
  </exercise>
  <exercise number="2">
    <scale>minor</scale>
    <cadenceVariant>harmonic</cadenceVariant>
    <bpm>140</bpm>
    <lowestNote>5</lowestNote>
    <tonalities>8</tonalities>
    <video name="10t.mp4" size="1757034" type="video/mp4" volume="0.5">65033f080d7eb7a04500eea385dc2e8a19615786c9e9c957f9d3fa239a58296b</video>
    <notes>
      <note number="1" values="5" ticks="122" durationTicks="35" ppq="96" velocity="0.709"/>
      <note number="2" values="5" ticks="170" durationTicks="68" ppq="96" velocity="0.772"/>
      <note number="3" values="5" ticks="266" durationTicks="96" ppq="96" velocity="0.722"/>
      <note number="4" values="18" ticks="362" durationTicks="96" ppq="96" velocity="0.784"/>
      <note number="5" values="28" ticks="458" durationTicks="96" ppq="96" velocity="0.722"/>
      <note number="6" values="18" ticks="554" durationTicks="96" ppq="96" velocity="0.787"/>
      <note number="7" values="79" ticks="650" durationTicks="96" ppq="96" velocity="0.727"/>
    </notes>
  </exercise>
  <exercise number="3">
    <scale>minor</scale>
    <cadenceVariant>harmonic</cadenceVariant>
    <bpm>140</bpm>
    <lowestNote>5</lowestNote>
    <tonalities>8</tonalities>
    <video name="11t.mp4" size="1878005" type="video/mp4" volume="0.5">872d87a2636fe4a8192a3c961267aab3dabcda77a719a0d8fda0b1f4ae44f2d1</video>
    <notes>
      <note number="1" values="5" ticks="136" durationTicks="35" ppq="96" velocity="0.709"/>
      <note number="2" values="5" ticks="184" durationTicks="68" ppq="96" velocity="0.772"/>
      <note number="3" values="5" ticks="280" durationTicks="96" ppq="96" velocity="0.719"/>
      <note number="4" values="28" ticks="376" durationTicks="96" ppq="96" velocity="0.764"/>
      <note number="5" values="48" ticks="472" durationTicks="96" ppq="96" velocity="0.714"/>
      <note number="6" values="38" ticks="568" durationTicks="96" ppq="96" velocity="0.795"/>
      <note number="7" values="28" ticks="664" durationTicks="96" ppq="96" velocity="0.732"/>
    </notes>
  </exercise>
  <exercise number="4">
    <scale>minor</scale>
    <cadenceVariant>harmonic</cadenceVariant>
    <bpm>140</bpm>
    <lowestNote>5</lowestNote>
    <tonalities>8</tonalities>
    <video name="12t.mp4" size="1808005" type="video/mp4" volume="0.5">af625d51a7777d8c812c5249c460a869779735c15ca96af99d0f862b0219e77f</video>
    <notes>
      <note number="1" values="6" ticks="90" durationTicks="35" ppq="96" velocity="0.709"/>
      <note number="2" values="5" ticks="138" durationTicks="68" ppq="96" velocity="0.772"/>
      <note number="3" values="5" ticks="234" durationTicks="96" ppq="96" velocity="0.709"/>
      <note number="4" values="79" ticks="330" durationTicks="96" ppq="96" velocity="0.777"/>
      <note number="5" values="28" ticks="426" durationTicks="72" ppq="96" velocity="0.711"/>
      <note number="6" values="28" ticks="522" durationTicks="96" ppq="96" velocity="0.795"/>
      <note number="7" values="38" ticks="618" durationTicks="96" ppq="96" velocity="0.714"/>
    </notes>
  </exercise>
  <exercise number="5">
    <scale>major</scale>
    <bpm>140</bpm>
    <lowestNote>6</lowestNote>
    <tonalities>8</tonalities>
    <video name="13t.mp4" size="1966933" type="video/mp4" volume="0.5">b4cc520217ed4b1e747e9f321651a5406d68cf0f71fbde891f65baccb99010cf</video>
    <notes>
      <note number="1" values="18" ticks="106" durationTicks="28" ppq="96" velocity="0.709"/>
      <note number="2" values="18" ticks="154" durationTicks="68" ppq="96" velocity="0.772"/>
      <note number="3" values="18" ticks="250" durationTicks="96" ppq="96" velocity="0.732"/>
      <note number="4" values="38" ticks="346" durationTicks="46" ppq="96" velocity="0.777"/>
      <note number="5" values="48" ticks="392" durationTicks="96" ppq="96" velocity="0.722"/>
      <note number="6" values="58" ticks="489" durationTicks="66" ppq="96" velocity="0.794"/>
      <note number="7" values="58" ticks="581" durationTicks="185" ppq="96" velocity="0.734"/>
    </notes>
  </exercise>
  <exercise number="6">
    <scale>minor</scale>
    <cadenceVariant>harmonic</cadenceVariant>
    <bpm>140</bpm>
    <lowestNote>6</lowestNote>
    <tonalities>8</tonalities>
    <video name="14t.mp4" size="2300465" type="video/mp4" volume="0.5">3c212f2e14980a2865b096f123573eb8d6bb2a2de2ea32512a24754453b0fc07</video>
    <notes>
      <note number="1" values="58" ticks="48" durationTicks="28" ppq="96" velocity="0.709"/>
      <note number="2" values="58" ticks="96" durationTicks="68" ppq="96" velocity="0.772"/>
      <note number="3" values="58" ticks="192" durationTicks="96" ppq="96" velocity="0.724"/>
      <note number="4" values="68" ticks="288" durationTicks="46" ppq="96" velocity="0.772"/>
      <note number="5" values="58" ticks="334" durationTicks="96" ppq="96" velocity="0.717"/>
      <note number="6" values="48" ticks="431" durationTicks="119" ppq="96" velocity="0.787"/>
    </notes>
  </exercise>
  <exercise number="7">
    <scale>minor</scale>
    <cadenceVariant>harmonic</cadenceVariant>
    <bpm>140</bpm>
    <lowestNote>6</lowestNote>
    <tonalities>8</tonalities>
    <video name="15t.mp4" size="1878153" type="video/mp4" volume="0.5">1ef54a408a74ca8d3b0e01658cc0027a17e6bd6eb0d247e42ef7232f6df1f43f</video>
    <notes>
      <note number="1" values="48" ticks="82" durationTicks="28" ppq="96" velocity="0.709"/>
      <note number="2" values="48" ticks="130" durationTicks="68" ppq="96" velocity="0.772"/>
      <note number="3" values="48" ticks="226" durationTicks="96" ppq="96" velocity="0.724"/>
      <note number="4" values="58" ticks="322" durationTicks="46" ppq="96" velocity="0.772"/>
      <note number="5" values="48" ticks="368" durationTicks="96" ppq="96" velocity="0.717"/>
      <note number="6" values="38" ticks="462" durationTicks="66" ppq="96" velocity="0.787"/>
      <note number="7" values="38" ticks="556" durationTicks="96" ppq="96" velocity="0.8"/>
    </notes>
  </exercise>
  <exercise number="8">
    <scale>minor</scale>
    <cadenceVariant>harmonic</cadenceVariant>
    <bpm>140</bpm>
    <lowestNote>6</lowestNote>
    <tonalities>8</tonalities>
    <video name="16t.mp4" size="1928490" type="video/mp4" volume="0.5">04e43abdcce19d1231bc784adf857776f82c40fbaba01cbe6d5d0125b80d9103</video>
    <notes>
      <note number="1" values="48" ticks="48" durationTicks="28" ppq="96" velocity="0.709"/>
      <note number="2" values="38" ticks="96" durationTicks="68" ppq="96" velocity="0.772"/>
      <note number="3" values="28" ticks="193" durationTicks="74" ppq="96" velocity="0.724"/>
      <note number="4" values="28" ticks="289" durationTicks="93" ppq="96" velocity="0.772"/>
      <note number="5" values="38" ticks="422" durationTicks="47" ppq="96" velocity="0.717"/>
      <note number="6" values="28" ticks="479" durationTicks="82" ppq="96" velocity="0.787"/>
      <note number="7" values="18" ticks="577" durationTicks="185" ppq="96" velocity="0.732"/>
    </notes>
  </exercise>
  <exercise number="9">
    <scale>minor</scale>
    <cadenceVariant>harmonic</cadenceVariant>
    <bpm>140</bpm>
    <lowestNote>6</lowestNote>
    <tonalities>8</tonalities>
    <video name="17t.mp4" size="1795706" type="video/mp4" volume="0.5">da2c1fd1e36838e3481039739417c821db7ef04570bf4da255efb61c141ee935</video>
    <notes>
      <note number="1" values="48" ticks="48" durationTicks="28" ppq="96" velocity="0.709"/>
      <note number="2" values="38" ticks="96" durationTicks="68" ppq="96" velocity="0.772"/>
      <note number="3" values="28" ticks="193" durationTicks="74" ppq="96" velocity="0.724"/>
      <note number="4" values="28" ticks="289" durationTicks="93" ppq="96" velocity="0.772"/>
      <note number="5" values="38" ticks="422" durationTicks="47" ppq="96" velocity="0.717"/>
      <note number="6" values="28" ticks="479" durationTicks="82" ppq="96" velocity="0.787"/>
      <note number="7" values="18" ticks="577" durationTicks="185" ppq="96" velocity="0.732"/>
    </notes>
  </exercise>
  <exercise number="10">
    <scale>minor</scale>
    <cadenceVariant>harmonic</cadenceVariant>
    <bpm>140</bpm>
    <lowestNote>6</lowestNote>
    <tonalities>8</tonalities>
    <video name="18t.mp4" size="1898858" type="video/mp4" volume="0.5">044c130357002a26d7b33cd37e77eb5ff82bf39608e5c3e33ad741f3393d111c</video>
    <notes>
      <note number="1" values="48" ticks="48" durationTicks="28" ppq="96" velocity="0.709"/>
      <note number="2" values="38" ticks="96" durationTicks="68" ppq="96" velocity="0.772"/>
      <note number="3" values="28" ticks="193" durationTicks="74" ppq="96" velocity="0.724"/>
      <note number="4" values="28" ticks="289" durationTicks="93" ppq="96" velocity="0.772"/>
      <note number="5" values="38" ticks="422" durationTicks="47" ppq="96" velocity="0.717"/>
      <note number="6" values="28" ticks="479" durationTicks="82" ppq="96" velocity="0.787"/>
      <note number="7" values="18" ticks="577" durationTicks="185" ppq="96" velocity="0.732"/>
    </notes>
  </exercise>
  <exercise number="11">
    <scale>minor</scale>
    <cadenceVariant>harmonic</cadenceVariant>
    <bpm>140</bpm>
    <lowestNote>6</lowestNote>
    <tonalities>8</tonalities>
    <video name="19t.mp4" size="1264566" type="video/mp4" volume="0.5">a7cdbbf48fd00bfffd9fe7e55f6dc189b729f06caadb96613a9ac53ac539062b</video>
    <notes>
      <note number="1" values="48" ticks="48" durationTicks="28" ppq="96" velocity="0.709"/>
      <note number="2" values="38" ticks="96" durationTicks="68" ppq="96" velocity="0.772"/>
      <note number="3" values="28" ticks="193" durationTicks="74" ppq="96" velocity="0.724"/>
      <note number="4" values="28" ticks="289" durationTicks="93" ppq="96" velocity="0.772"/>
      <note number="5" values="38" ticks="422" durationTicks="47" ppq="96" velocity="0.717"/>
      <note number="6" values="28" ticks="479" durationTicks="82" ppq="96" velocity="0.787"/>
      <note number="7" values="18" ticks="577" durationTicks="185" ppq="96" velocity="0.732"/>
    </notes>
  </exercise>
  <exercise number="12">
    <scale>minor</scale>
    <cadenceVariant>harmonic</cadenceVariant>
    <bpm>140</bpm>
    <lowestNote>6</lowestNote>
    <tonalities>8</tonalities>
    <video name="20t.mp4" size="1300641" type="video/mp4" volume="0.5">e22bfae42c3ab6004f2cc73a6a1373bc4db3bbfa4721634bea7604e34a2fe61d</video>
    <notes>
      <note number="1" values="48" ticks="48" durationTicks="28" ppq="96" velocity="0.709"/>
      <note number="2" values="38" ticks="96" durationTicks="68" ppq="96" velocity="0.772"/>
      <note number="3" values="28" ticks="193" durationTicks="74" ppq="96" velocity="0.724"/>
      <note number="4" values="28" ticks="289" durationTicks="93" ppq="96" velocity="0.772"/>
      <note number="5" values="38" ticks="422" durationTicks="47" ppq="96" velocity="0.717"/>
      <note number="6" values="28" ticks="479" durationTicks="82" ppq="96" velocity="0.787"/>
      <note number="7" values="18" ticks="577" durationTicks="185" ppq="96" velocity="0.732"/>
    </notes>
  </exercise>
  <exercise number="13">
    <scale>minor</scale>
    <cadenceVariant>harmonic</cadenceVariant>
    <bpm>140</bpm>
    <lowestNote>6</lowestNote>
    <tonalities>8</tonalities>
    <video name="21t.mp4" size="1761767" type="video/mp4" volume="0.5">7b88541080353513c9920f926b11e936d2d64c29a17a7585319f3fbd996cdf13</video>
    <notes>
      <note number="1" values="48" ticks="48" durationTicks="28" ppq="96" velocity="0.709"/>
      <note number="2" values="38" ticks="96" durationTicks="68" ppq="96" velocity="0.772"/>
      <note number="3" values="28" ticks="193" durationTicks="74" ppq="96" velocity="0.724"/>
      <note number="4" values="28" ticks="289" durationTicks="93" ppq="96" velocity="0.772"/>
      <note number="5" values="38" ticks="422" durationTicks="47" ppq="96" velocity="0.717"/>
      <note number="6" values="28" ticks="479" durationTicks="82" ppq="96" velocity="0.787"/>
      <note number="7" values="18" ticks="577" durationTicks="185" ppq="96" velocity="0.732"/>
    </notes>
  </exercise>
  <exercise number="14">
    <scale>minor</scale>
    <cadenceVariant>harmonic</cadenceVariant>
    <bpm>140</bpm>
    <lowestNote>6</lowestNote>
    <tonalities>8</tonalities>
    <video name="22t.mp4" size="1292701" type="video/mp4" volume="0.5">84a7a704d08d84094742e2df4d511c68a70b95efd29f0562266141febad2df4e</video>
    <notes>
      <note number="1" values="48" ticks="48" durationTicks="28" ppq="96" velocity="0.709"/>
      <note number="2" values="38" ticks="96" durationTicks="68" ppq="96" velocity="0.772"/>
      <note number="3" values="28" ticks="193" durationTicks="74" ppq="96" velocity="0.724"/>
      <note number="4" values="28" ticks="289" durationTicks="93" ppq="96" velocity="0.772"/>
      <note number="5" values="38" ticks="422" durationTicks="47" ppq="96" velocity="0.717"/>
      <note number="6" values="28" ticks="479" durationTicks="82" ppq="96" velocity="0.787"/>
      <note number="7" values="18" ticks="577" durationTicks="185" ppq="96" velocity="0.732"/>
    </notes>
  </exercise>
  <exercise number="15">
    <scale>minor</scale>
    <cadenceVariant>harmonic</cadenceVariant>
    <bpm>140</bpm>
    <lowestNote>6</lowestNote>
    <tonalities>8</tonalities>
    <video name="23t.mp4" size="1629104" type="video/mp4" volume="0.5">bcaf34615ff81d6c2b8f077648c5d74316853bd150410d565bcdb4051d9332b2</video>
    <notes>
      <note number="1" values="48" ticks="48" durationTicks="28" ppq="96" velocity="0.709"/>
      <note number="2" values="38" ticks="96" durationTicks="68" ppq="96" velocity="0.772"/>
      <note number="3" values="28" ticks="193" durationTicks="74" ppq="96" velocity="0.724"/>
      <note number="4" values="28" ticks="289" durationTicks="93" ppq="96" velocity="0.772"/>
      <note number="5" values="38" ticks="422" durationTicks="47" ppq="96" velocity="0.717"/>
      <note number="6" values="28" ticks="479" durationTicks="82" ppq="96" velocity="0.787"/>
      <note number="7" values="18" ticks="577" durationTicks="185" ppq="96" velocity="0.732"/>
    </notes>
  </exercise>
  <exercise number="16">
    <scale>minor</scale>
    <cadenceVariant>harmonic</cadenceVariant>
    <bpm>140</bpm>
    <lowestNote>6</lowestNote>
    <tonalities>8</tonalities>
    <video name="24t.mp4" size="1366385" type="video/mp4" volume="0.5">8c881ff202037451cd15dcbcb36a6f0738627758f9da2efa7b1114f62a00aa9b</video>
    <notes>
      <note number="1" values="48" ticks="48" durationTicks="28" ppq="96" velocity="0.709"/>
      <note number="2" values="38" ticks="96" durationTicks="68" ppq="96" velocity="0.772"/>
      <note number="3" values="28" ticks="193" durationTicks="74" ppq="96" velocity="0.724"/>
      <note number="4" values="28" ticks="289" durationTicks="93" ppq="96" velocity="0.772"/>
      <note number="5" values="38" ticks="422" durationTicks="47" ppq="96" velocity="0.717"/>
      <note number="6" values="28" ticks="479" durationTicks="82" ppq="96" velocity="0.787"/>
      <note number="7" values="18" ticks="577" durationTicks="185" ppq="96" velocity="0.732"/>
    </notes>
  </exercise>
</level>
